
<svg  viewBox="0 0 52 53" version="1.1" xmlns="http://www.w3.org/2000/svg" xmlns:xlink="http://www.w3.org/1999/xlink">
      <path d="M7.62,15.42 C5.54,15.42 3.75,14.72 2.25,13.32 C0.75,11.92 -8.8817842e-15,10.06 -8.8817842e-15,7.74 C-8.8817842e-15,5.38 0.75,3.5 2.25,2.1 C3.75,0.7 5.54,0 7.62,0 C9.7,0 11.49,0.7 12.99,2.1 C14.49,3.5 15.24,5.38 15.24,7.74 C15.24,10.06 14.49,11.92 12.99,13.32 C11.49,14.72 9.7,15.42 7.62,15.42 Z" id="Path"></path>
                <path d="M25.4383784,15.42 C23.3583784,15.42 21.5683784,14.72 20.0683784,13.32 C18.5683784,11.92 17.8183784,10.06 17.8183784,7.74 C17.8183784,5.38 18.5683784,3.5 20.0683784,2.1 C21.5683784,0.7 23.3583784,0 25.4383784,0 C27.5183784,0 29.3083784,0.7 30.8083784,2.1 C32.3083784,3.5 33.0583784,5.38 33.0583784,7.74 C33.0583784,10.06 32.3083784,11.92 30.8083784,13.32 C29.3083784,14.72 27.5183784,15.42 25.4383784,15.42 Z" id="Path"></path>
                <path d="M43.2567568,15.42 C41.1767568,15.42 39.3867568,14.72 37.8867568,13.32 C36.3867568,11.92 35.6367568,10.06 35.6367568,7.74 C35.6367568,5.38 36.3867568,3.5 37.8867568,2.1 C39.3867568,0.7 41.1767568,0 43.2567568,0 C45.3367568,0 47.1267568,0.7 48.6267568,2.1 C50.1267568,3.5 50.8767568,5.38 50.8767568,7.74 C50.8767568,10.06 50.1267568,11.92 48.6267568,13.32 C47.1267568,14.72 45.3367568,15.42 43.2567568,15.42 Z" id="Path"></path>
                <path d="M43.43,51.17 C41.35,51.17 39.56,50.47 38.06,49.07 C36.56,47.67 35.81,45.81 35.81,43.49 C35.81,41.13 36.56,39.25 38.06,37.85 C39.56,36.45 41.35,35.75 43.43,35.75 C45.51,35.75 47.3,36.45 48.8,37.85 C50.3,39.25 51.05,41.13 51.05,43.49 C51.05,45.81 50.3,47.67 48.8,49.07 C47.3,50.47 45.51,51.17 43.43,51.17 Z" id="Path" transform="translate(43.430000, 43.460000) rotate(-90.000000) translate(-43.430000, -43.460000) "></path>
                <path d="M43.43,33.3516216 C41.35,33.3516216 39.56,32.6516216 38.06,31.2516216 C36.56,29.8516216 35.81,27.9916216 35.81,25.6716216 C35.81,23.3116216 36.56,21.4316216 38.06,20.0316216 C39.56,18.6316216 41.35,17.9316216 43.43,17.9316216 C45.51,17.9316216 47.3,18.6316216 48.8,20.0316216 C50.3,21.4316216 51.05,23.3116216 51.05,25.6716216 C51.05,27.9916216 50.3,29.8516216 48.8,31.2516216 C47.3,32.6516216 45.51,33.3516216 43.43,33.3516216 Z" id="Path" transform="translate(43.430000, 25.641622) rotate(-90.000000) translate(-43.430000, -25.641622) "></path>
                <path d="M43.43,15.5332432 C41.35,15.5332432 39.56,14.8332432 38.06,13.4332432 C36.56,12.0332432 35.81,10.1732432 35.81,7.85324324 C35.81,5.49324324 36.56,3.61324324 38.06,2.21324324 C39.56,0.813243243 41.35,0.113243243 43.43,0.113243243 C45.51,0.113243243 47.3,0.813243243 48.8,2.21324324 C50.3,3.61324324 51.05,5.49324324 51.05,7.85324324 C51.05,10.1732432 50.3,12.0332432 48.8,13.4332432 C47.3,14.8332432 45.51,15.5332432 43.43,15.5332432 Z" id="Path" transform="translate(43.430000, 7.823243) rotate(-90.000000) translate(-43.430000, -7.823243) "></path>
</svg>